<svg xmlns="http://www.w3.org/2000/svg" width="800" height="340" viewBox="0 0 800 340" font-family="system-ui, -apple-system, Segoe UI, sans-serif">
<text x="56" y="24" fill="#0b0b0b" font-size="13.5" text-anchor="start" font-weight="600">The cache discount</text>
<text x="56" y="42" fill="#898781" font-size="11.5" text-anchor="start">one turn, re-sending history at full price vs through the cache</text>
<text x="56" y="62" fill="#0b0b0b" font-size="12" text-anchor="start" font-weight="600">Opus 5.5  ($4 / M input)</text>
<line x1="56" y1="249.3" x2="330" y2="249.3" stroke="#e1e0d9" stroke-width="1"/>
<line x1="56" y1="198.7" x2="330" y2="198.7" stroke="#e1e0d9" stroke-width="1"/>
<line x1="56" y1="148" x2="330" y2="148" stroke="#e1e0d9" stroke-width="1"/>
<line x1="56" y1="97.3" x2="330" y2="97.3" stroke="#e1e0d9" stroke-width="1"/>
<line x1="56" y1="300" x2="330" y2="300" stroke="#c3c2b7" stroke-width="1"/>
<text x="56" y="318" fill="#898781" font-size="11" text-anchor="middle">0</text>
<text x="193" y="318" fill="#898781" font-size="11" text-anchor="middle">250K</text>
<text x="330" y="318" fill="#898781" font-size="11" text-anchor="middle">500K</text>
<polyline points="56,300 330,210.8" fill="none" stroke="#898781" stroke-width="2" stroke-linecap="round" stroke-linejoin="round"/>
<polyline points="56,300 330,295.5" fill="none" stroke="#2a78d6" stroke-width="2" stroke-linecap="round" stroke-linejoin="round"/>
<circle cx="330" cy="210.8" r="4.5" fill="#898781" stroke="#ffffff" stroke-width="2"/>
<circle cx="330" cy="295.5" r="4.5" fill="#2a78d6" stroke="#ffffff" stroke-width="2"/>
<text x="340" y="208.8" fill="#52514e" font-size="11" text-anchor="start">full price</text>
<text x="340" y="222.8" fill="#0b0b0b" font-size="12" text-anchor="start" font-weight="600">$17.60</text>
<text x="340" y="293.5" fill="#52514e" font-size="11" text-anchor="start">cached</text>
<text x="340" y="307.5" fill="#0b0b0b" font-size="12" text-anchor="start" font-weight="600">$0.88</text>
<text x="450" y="62" fill="#0b0b0b" font-size="12" text-anchor="start" font-weight="600">Fable 5.1  ($10 / M input)</text>
<line x1="450" y1="249.3" x2="724" y2="249.3" stroke="#e1e0d9" stroke-width="1"/>
<line x1="450" y1="198.7" x2="724" y2="198.7" stroke="#e1e0d9" stroke-width="1"/>
<line x1="450" y1="148" x2="724" y2="148" stroke="#e1e0d9" stroke-width="1"/>
<line x1="450" y1="97.3" x2="724" y2="97.3" stroke="#e1e0d9" stroke-width="1"/>
<line x1="450" y1="300" x2="724" y2="300" stroke="#c3c2b7" stroke-width="1"/>
<text x="450" y="318" fill="#898781" font-size="11" text-anchor="middle">0</text>
<text x="587" y="318" fill="#898781" font-size="11" text-anchor="middle">250K</text>
<text x="724" y="318" fill="#898781" font-size="11" text-anchor="middle">500K</text>
<polyline points="450,300 724,77.1" fill="none" stroke="#898781" stroke-width="2" stroke-linecap="round" stroke-linejoin="round"/>
<polyline points="450,300 724,294.4" fill="none" stroke="#eb6834" stroke-width="2" stroke-linecap="round" stroke-linejoin="round"/>
<circle cx="724" cy="77.1" r="4.5" fill="#898781" stroke="#ffffff" stroke-width="2"/>
<circle cx="724" cy="294.4" r="4.5" fill="#eb6834" stroke="#ffffff" stroke-width="2"/>
<text x="734" y="75.1" fill="#52514e" font-size="11" text-anchor="start">full price</text>
<text x="734" y="89.1" fill="#0b0b0b" font-size="12" text-anchor="start" font-weight="600">$44.00</text>
<text x="734" y="292.4" fill="#52514e" font-size="11" text-anchor="start">cached</text>
<text x="734" y="306.4" fill="#0b0b0b" font-size="12" text-anchor="start" font-weight="600">$1.10</text>
<text x="48" y="253.3" fill="#898781" font-size="11" text-anchor="end">$10</text>
<text x="48" y="202.7" fill="#898781" font-size="11" text-anchor="end">$20</text>
<text x="48" y="152" fill="#898781" font-size="11" text-anchor="end">$30</text>
<text x="48" y="101.3" fill="#898781" font-size="11" text-anchor="end">$40</text>
<text x="400" y="338" fill="#898781" font-size="11" text-anchor="middle">context (tokens)</text>
</svg>
